<svg width="161" height="161" viewBox="0 0 161 161" fill="none" xmlns="http://www.w3.org/2000/svg">
<path d="M161 130.088C161 147.16 147.16 161 130.088 161L30.9121 161C13.8399 161 0.000123297 147.16 0.000124811 130.088L0.000133605 30.912C0.000135118 13.8398 13.8399 -1.3048e-05 30.9121 -1.15343e-05L130.088 -2.74083e-06C147.16 -1.22711e-06 161 13.8398 161 30.912L161 130.088Z" fill="#5B0161"/>
<path d="M116.556 67.7773C116.556 87.5368 100.538 103.556 80.7783 103.556C61.0188 103.556 45 87.5369 45 67.7773V32C64.7595 32 80.7783 48.0179 80.7783 67.7773C80.7784 48.018 96.7963 32.0002 116.556 32V67.7773Z" fill="#FED3FF"/>
<path d="M39 45C62.288 45 81.1667 63.8787 81.1667 87.1667V129.333C57.8787 129.333 39 110.455 39 87.1666V45Z" fill="white"/>
<path d="M123.333 45C100.045 45 81.1667 63.8787 81.1667 87.1667V129.333C104.455 129.333 123.333 110.455 123.333 87.1666V45Z" fill="white"/>
</svg>
